<svg xmlns="http://www.w3.org/2000/svg" viewBox="0 0 206.3 78.01"><defs><style>.cls-1{fill:#fff;}</style></defs><title>Font</title><g id="Typo"><path class="cls-1" d="M202.51,153.76v37c0,5.91-7,10.7-12.2,11.7v-.09a16.09,16.09,0,0,1-4.1.4c-4.1,0-14.3-2.9-14.3-7.21a3.18,3.18,0,0,1,3.1-3.1c1.9,0,4.6,4.1,11.2,4.1,3.3,0,9.1-1.1,10-5.8v-9.1a15,15,0,0,1-10.6,4.1c-9.8,0-16.8-8.7-16.8-18s7-17.9,16.8-17.9a16.29,16.29,0,0,1,10.6,4.1v-.2a3.29,3.29,0,0,1,3.2-3.2A3.14,3.14,0,0,1,202.51,153.76Zm-6.5,14c0-6-4.2-11.6-10.4-11.6s-10.5,5.6-10.5,11.6,4.4,11.7,10.5,11.7S196,173.76,196,167.76Z" transform="translate(-168.81 -124.76)"/><path class="cls-1" d="M246.31,167.86a3.22,3.22,0,0,1-3.2,3.2h-23.6c1.2,4.8,5,8.5,10,8.5a10.47,10.47,0,0,0,9.1-4.6,3.4,3.4,0,0,1,2.6-1.5,3.14,3.14,0,0,1,3.2,3.1,3.36,3.36,0,0,1-.5,1.6c-2.9,5.2-8.7,7.7-14.4,7.7-9.8,0-16.8-8.7-16.8-18s7-17.9,16.8-17.9S246.31,158.66,246.31,167.86Zm-6.8-3.1c-1.2-4.6-5-8.5-10-8.5s-8.7,3.9-10,8.5Z" transform="translate(-168.81 -124.76)"/><path class="cls-1" d="M262.81,127.86v54.3a3.11,3.11,0,0,1-3.1,3.1,3.2,3.2,0,0,1-3.2-3.1v-54.3a3.27,3.27,0,0,1,3.2-3.1A3.18,3.18,0,0,1,262.81,127.86Z" transform="translate(-168.81 -124.76)"/><path class="cls-1" d="M305,153.66v28.2a3.15,3.15,0,1,1-6.3,0v-.4a17.37,17.37,0,0,1-11.1,4.4c-9.8,0-16.8-8.7-16.8-18s7-17.9,16.8-17.9a16.85,16.85,0,0,1,11.1,4.4v-.7a3.15,3.15,0,1,1,6.3,0Zm-7,14.2c0-6-4.2-11.6-10.4-11.6s-10.5,5.6-10.5,11.6,4.4,11.7,10.5,11.7S298,174,298,167.86Z" transform="translate(-168.81 -124.76)"/><path class="cls-1" d="M333.11,150.56a3.27,3.27,0,0,1,3.1,3.2,3.12,3.12,0,0,1-3.1,3.1H328v25.4a3.15,3.15,0,0,1-6.3,0v-25.4h-4.8a3.14,3.14,0,0,1-3.2-3.1,3.29,3.29,0,0,1,3.2-3.2h4.8v-8.1a3.15,3.15,0,1,1,6.3,0v8.1Z" transform="translate(-168.81 -124.76)"/><path class="cls-1" d="M375.11,167.76c0,9.4-7,18-16.8,18s-16.8-8.6-16.8-18c0-9.2,7-17.9,16.8-17.9S375.11,158.56,375.11,167.76Zm-6.4,0c0-5.9-4.2-11.5-10.4-11.5s-10.5,5.6-10.5,11.5c0,6.1,4.4,11.7,10.5,11.7S368.71,173.86,368.71,167.76Z" transform="translate(-168.81 -124.76)"/></g></svg>